<svg width="18" height="10" viewBox="0 0 18 10" fill="none" xmlns="http://www.w3.org/2000/svg">
<path d="M16.6035 0.735592L9.57601 7.65209C9.42268 7.80378 9.2157 7.88887 9.00002 7.88887C8.78433 7.88887 8.57735 7.80378 8.42402 7.65209L1.39502 0.737092C1.24073 0.585478 1.03308 0.500524 0.816765 0.500524C0.600455 0.500524 0.392798 0.585478 0.238515 0.737092C0.162542 0.811158 0.102164 0.899681 0.0609385 0.997447C0.0197129 1.09521 -0.00152588 1.20024 -0.00152588 1.30634C-0.00152588 1.41244 0.0197129 1.51747 0.0609385 1.61524C0.102164 1.713 0.162542 1.80153 0.238515 1.87559L7.26452 8.79059C7.7273 9.24498 8.34995 9.49956 8.99852 9.49956C9.64708 9.49956 10.2697 9.24498 10.7325 8.79059L17.7585 1.87559C17.8347 1.8015 17.8953 1.71289 17.9367 1.61498C17.978 1.51708 17.9993 1.41187 17.9993 1.30559C17.9993 1.19931 17.978 1.09411 17.9367 0.996201C17.8953 0.898297 17.8347 0.809681 17.7585 0.735592C17.6042 0.583979 17.3966 0.499023 17.1803 0.499023C16.964 0.499023 16.7563 0.583979 16.602 0.735592" fill="#0D0C0C"/>
</svg>
