<svg width="24" height="24" viewBox="0 0 24 24" fill="none" xmlns="http://www.w3.org/2000/svg">
<path d="M7.73559 6.39642L14.6521 13.4239C14.8038 13.5773 14.8889 13.7842 14.8889 13.9999C14.8889 14.2156 14.8038 14.4226 14.6521 14.5759L7.73709 21.6049C7.58548 21.7592 7.50052 21.9669 7.50052 22.1832C7.50052 22.3995 7.58548 22.6071 7.73709 22.7614C7.81116 22.8374 7.89968 22.8978 7.99745 22.939C8.09521 22.9802 8.20024 23.0015 8.30634 23.0015C8.41244 23.0015 8.51747 22.9802 8.61524 22.939C8.713 22.8978 8.80153 22.8374 8.87559 22.7614L15.7906 15.7354C16.245 15.2726 16.4996 14.65 16.4996 14.0014C16.4996 13.3529 16.245 12.7302 15.7906 12.2674L8.87559 5.24142C8.8015 5.16522 8.71289 5.10465 8.61498 5.06329C8.51708 5.02192 8.41187 5.00061 8.30559 5.00061C8.19931 5.00061 8.09411 5.02192 7.9962 5.06329C7.8983 5.10465 7.80968 5.16522 7.73559 5.24142C7.58398 5.39571 7.49902 5.60336 7.49902 5.81968C7.49902 6.03598 7.58398 6.24364 7.73559 6.39792" fill="#3B87B6"/>
</svg>
