<svg width="24" height="24" viewBox="0 0 24 24" fill="none" xmlns="http://www.w3.org/2000/svg">
<g id="arrow-down">
<path id="Vector" d="M19.6036 7.73559L12.5761 14.6521C12.4227 14.8038 12.2158 14.8889 12.0001 14.8889C11.7844 14.8889 11.5774 14.8038 11.4241 14.6521L4.39508 7.73709C4.24079 7.58548 4.03314 7.50052 3.81683 7.50052C3.60052 7.50052 3.39286 7.58548 3.23858 7.73709C3.1626 7.81116 3.10223 7.89968 3.061 7.99745C3.01977 8.09521 2.99854 8.20024 2.99854 8.30634C2.99854 8.41244 3.01977 8.51747 3.061 8.61524C3.10223 8.713 3.1626 8.80153 3.23858 8.87559L10.2646 15.7906C10.7274 16.245 11.35 16.4996 11.9986 16.4996C12.6471 16.4996 13.2698 16.245 13.7326 15.7906L20.7586 8.87559C20.8348 8.8015 20.8954 8.71289 20.9367 8.61498C20.9781 8.51708 20.9994 8.41187 20.9994 8.30559C20.9994 8.19931 20.9781 8.09411 20.9367 7.9962C20.8954 7.8983 20.8348 7.80968 20.7586 7.73559C20.6043 7.58398 20.3966 7.49902 20.1803 7.49902C19.964 7.49902 19.7564 7.58398 19.6021 7.73559" fill="#018ABE"/>
</g>
</svg>
