<svg xmlns="http://www.w3.org/2000/svg">
  <symbol id="basket" viewBox="0 0 24 24">
    <path d="M3.87299 17.02L2.66899 9.84C2.48699 8.754 2.39599 8.212 2.68799 7.856C2.97899 7.5 3.51499 7.5 4.58599 7.5H19.414C20.485 7.5 21.021 7.5 21.312 7.856C21.604 8.212 21.512 8.754 21.331 9.84L20.127 17.02C19.728 19.4 19.529 20.589 18.714 21.295C17.9 22 16.726 22 14.378 22H9.62198C7.27398 22 6.09999 22 5.28598 21.294C4.47098 20.589 4.27199 19.399 3.87299 17.019M17.5 7.5C17.5 6.04131 16.9205 4.64236 15.8891 3.61091C14.8576 2.57946 13.4587 2 12 2C10.5413 2 9.14235 2.57946 8.1109 3.61091C7.07945 4.64236 6.49999 6.04131 6.49999 7.5" stroke="#0D0C0C" stroke-width="1.5" stroke-linecap="round" stroke-linejoin="round"/>
  </symbol>
  <symbol id="down" viewBox="0 0 18 10">
   <path d="M16.6035 0.735592L9.57601 7.65209C9.42268 7.80378 9.2157 7.88887 9.00002 7.88887C8.78433 7.88887 8.57735 7.80378 8.42402 7.65209L1.39502 0.737092C1.24073 0.585478 1.03308 0.500524 0.816765 0.500524C0.600455 0.500524 0.392798 0.585478 0.238515 0.737092C0.162542 0.811158 0.102164 0.899681 0.0609385 0.997447C0.0197129 1.09521 -0.00152588 1.20024 -0.00152588 1.30634C-0.00152588 1.41244 0.0197129 1.51747 0.0609385 1.61524C0.102164 1.713 0.162542 1.80153 0.238515 1.87559L7.26452 8.79059C7.7273 9.24498 8.34995 9.49956 8.99852 9.49956C9.64708 9.49956 10.2697 9.24498 10.7325 8.79059L17.7585 1.87559C17.8347 1.8015 17.8953 1.71289 17.9367 1.61498C17.978 1.51708 17.9993 1.41187 17.9993 1.30559C17.9993 1.19931 17.978 1.09411 17.9367 0.996201C17.8953 0.898297 17.8347 0.809681 17.7585 0.735592C17.6042 0.583979 17.3966 0.499023 17.1803 0.499023C16.964 0.499023 16.7563 0.583979 16.602 0.735592" />
  </symbol>
 <symbol id="search" viewBox="0 0 24 24">
   <path d="M22.7196 21.8258L16.0617 15.1027C17.3026 13.611 18.0505 11.6919 18.0505 9.59646C18.0505 4.84881 14.2157 1 9.48528 1C4.75487 1 0.920044 4.84881 0.920044 9.59646C0.920044 14.3441 4.75487 18.1929 9.48528 18.1929C11.6345 18.1929 13.5976 17.3965 15.1017 16.0837L21.7504 22.7986C22.0179 23.0671 22.452 23.0671 22.7196 22.7986C22.9869 22.53 22.9869 22.0947 22.7196 21.8258H22.7196ZM9.48528 16.8288C5.50553 16.8288 2.27918 13.5907 2.27918 9.59646C2.27918 5.6022 5.50553 2.36409 9.48528 2.36409C13.465 2.36409 16.6914 5.6022 16.6914 9.59646C16.6914 13.5907 13.465 16.8288 9.48528 16.8288Z" fill="#0D0C0C"/>
 </symbol>
 <symbol id="like" viewBox="0 0 24 24">
  <path fill-rule="evenodd" clip-rule="evenodd" d="M19.5169 11.671C20.2807 10.8594 20.7051 9.76351 20.6965 8.62454C20.688 7.48557 20.2474 6.39679 19.4715 5.59771C19.0874 5.20205 18.6325 4.88942 18.1328 4.67767C17.6332 4.46593 17.0985 4.35921 16.5595 4.36362C15.4707 4.37252 14.43 4.83351 13.6662 5.64518C13.4588 5.86216 13.1952 6.1285 12.8754 6.44418L11.9864 7.32003L11.0973 6.44418C10.7768 6.12774 10.5129 5.86141 10.3055 5.64518C9.53563 4.83981 8.49151 4.38736 7.40279 4.38736C6.31408 4.38736 5.26996 4.83981 4.50012 5.64518C2.91429 7.30534 2.89592 9.98939 4.44178 11.6575L11.9864 19.5503L19.5169 11.671ZM3.58297 4.68683C4.08455 4.16196 4.68005 3.7456 5.33546 3.46154C5.99088 3.17747 6.69336 3.03127 7.40279 3.03127C8.11223 3.03127 8.81471 3.17747 9.47012 3.46154C10.1255 3.7456 10.721 4.16196 11.2226 4.68683C11.4192 4.89327 11.6738 5.15018 11.9864 5.45758C12.2975 5.15018 12.5521 4.89289 12.7501 4.6857C13.7553 3.61791 15.1248 3.01161 16.5573 3.00016C17.9898 2.98872 19.368 3.57307 20.3887 4.62467C21.4093 5.67627 21.9889 7.10897 21.9998 8.6076C22.0108 10.1062 21.4522 11.548 20.447 12.6158L12.7501 20.6691C12.5475 20.881 12.2728 21 11.9864 21C11.6999 21 11.4252 20.881 11.2226 20.6691L3.52356 12.6147C2.53624 11.5494 1.98905 10.1206 2.00017 8.63689C2.01128 7.15314 2.57981 5.73351 3.58297 4.68457V4.68683Z" fill="#0D0C0C"/>
 </symbol>
<symbol id="fav" viewBox="0 0 36 36">
 <path fill-rule="evenodd" clip-rule="evenodd" d="M29.3799 17.465C30.5256 16.2475 31.1621 14.6038 31.1494 12.8953C31.1366 11.1869 30.4756 9.55368 29.3118 8.35506C28.7356 7.76157 28.0533 7.29263 27.3038 6.97501C26.5543 6.65739 25.7524 6.49732 24.9437 6.50393C23.3107 6.51728 21.7496 7.20876 20.6038 8.42626C20.2927 8.75174 19.8973 9.15124 19.4177 9.62477L18.0841 10.9385L16.7505 9.62477C16.2698 9.15011 15.8739 8.75061 15.5628 8.42626C14.408 7.21821 12.8418 6.53953 11.2087 6.53953C9.57567 6.53953 8.00949 7.21821 6.85473 8.42626C4.47598 10.9165 4.44844 14.9426 6.76723 17.4447L18.0841 29.2839L29.3799 17.465ZM5.47901 6.98874C6.23138 6.20144 7.12463 5.5769 8.10775 5.1508C9.09087 4.72471 10.1446 4.50539 11.2087 4.50539C12.2729 4.50539 13.3266 4.72471 14.3097 5.1508C15.2929 5.5769 16.1861 6.20144 16.9385 6.98874C17.2334 7.29839 17.6153 7.68377 18.0841 8.14486C18.5508 7.68377 18.9326 7.29783 19.2297 6.98704C20.7375 5.38537 22.7918 4.47591 24.9405 4.45874C27.0893 4.44158 29.1566 5.3181 30.6876 6.8955C32.2186 8.4729 33.0879 10.622 33.1043 12.8699C33.1207 15.1178 32.2829 17.2805 30.7751 18.8822L19.2297 30.9622C18.9259 31.28 18.5138 31.4585 18.0841 31.4585C17.6544 31.4585 17.2423 31.28 16.9385 30.9622L5.38989 18.8805C3.90891 17.2826 3.08813 15.1395 3.1048 12.9138C3.12148 10.6882 3.97427 8.55875 5.47901 6.98535V6.98874Z" fill="#FB3636"/>
<path d="M29.3799 17.465C30.5256 16.2475 31.1621 14.6038 31.1494 12.8953C31.1366 11.1869 30.4756 9.55368 29.3118 8.35506C28.7356 7.76157 28.0533 7.29263 27.3038 6.97501C26.5543 6.65739 25.7524 6.49732 24.9437 6.50393C23.3107 6.51728 21.7496 7.20876 20.6038 8.42626C20.2927 8.75174 19.8973 9.15124 19.4177 9.62477L18.0841 10.9385L16.7505 9.62477C16.2698 9.15011 15.8739 8.75061 15.5628 8.42626C14.408 7.21821 12.8418 6.53953 11.2087 6.53953C9.57567 6.53953 8.00949 7.21821 6.85473 8.42626C4.47598 10.9165 4.44844 14.9426 6.76723 17.4447L18.0841 29.2839L29.3799 17.465Z" fill="#FB3636"/>
 </symbol>
 <symbol id="menu" viewBox="0 0 24 24">
   <path fill-rule="evenodd" clip-rule="evenodd" d="M4 9.83038C4 9.64677 4.05268 9.47068 4.14645 9.34084C4.24021 9.21101 4.36739 9.13807 4.5 9.13807H15.808C15.9406 9.13807 16.0678 9.21101 16.1616 9.34084C16.2553 9.47068 16.308 9.64677 16.308 9.83038C16.308 10.014 16.2553 10.1901 16.1616 10.3199C16.0678 10.4497 15.9406 10.5227 15.808 10.5227H4.5C4.36739 10.5227 4.24021 10.4497 4.14645 10.3199C4.05268 10.1901 4 10.014 4 9.83038ZM4 4.29192C4 4.10831 4.05268 3.93221 4.14645 3.80238C4.24021 3.67255 4.36739 3.59961 4.5 3.59961H19.5C19.6326 3.59961 19.7598 3.67255 19.8536 3.80238C19.9473 3.93221 20 4.10831 20 4.29192C20 4.47553 19.9473 4.65162 19.8536 4.78145C19.7598 4.91129 19.6326 4.98422 19.5 4.98422H4.5C4.36739 4.98422 4.24021 4.91129 4.14645 4.78145C4.05268 4.65162 4 4.47553 4 4.29192ZM4 15.3688C4 15.1852 4.05268 15.0091 4.14645 14.8793C4.24021 14.7495 4.36739 14.6765 4.5 14.6765H19.5C19.6326 14.6765 19.7598 14.7495 19.8536 14.8793C19.9473 15.0091 20 15.1852 20 15.3688C20 15.5525 19.9473 15.7285 19.8536 15.8584C19.7598 15.9882 19.6326 16.0611 19.5 16.0611H4.5C4.36739 16.0611 4.24021 15.9882 4.14645 15.8584C4.05268 15.7285 4 15.5525 4 15.3688ZM4 20.9073C4 20.7237 4.05268 20.5476 4.14645 20.4178C4.24021 20.2879 4.36739 20.215 4.5 20.215H15.808C15.9406 20.215 16.0678 20.2879 16.1616 20.4178C16.2553 20.5476 16.308 20.7237 16.308 20.9073C16.308 21.0909 16.2553 21.267 16.1616 21.3968C16.0678 21.5267 15.9406 21.5996 15.808 21.5996H4.5C4.36739 21.5996 4.24021 21.5267 4.14645 21.3968C4.05268 21.267 4 21.0909 4 20.9073Z" fill="#0D0C0C"/>
 </symbol>
 <symbol id="person" viewBox="0 0 24 24">
   <path d="M16.125 6.75C15.9413 9.22828 14.0625 11.25 12 11.25C9.93751 11.25 8.05548 9.22875 7.87501 6.75C7.68751 4.17188 9.51563 2.25 12 2.25C14.4844 2.25 16.3125 4.21875 16.125 6.75Z" stroke="#0D0C0C" stroke-width="1.5" stroke-linecap="round" stroke-linejoin="round"/>
<path d="M12 14.25C7.92187 14.25 3.7828 16.5 3.01687 20.7469C2.92452 21.2588 3.21421 21.75 3.74999 21.75H20.25C20.7862 21.75 21.0759 21.2588 20.9836 20.7469C20.2172 16.5 16.0781 14.25 12 14.25Z" stroke="#0D0C0C" stroke-width="1.5" stroke-miterlimit="10"/>
 </symbol>
<symbol id="filter" viewBox="0 0 20 20">
   <path d="M19.25 9.99989H6.895M2.534 9.99989H0.75M2.534 9.99989C2.534 9.42172 2.76368 8.86723 3.17251 8.4584C3.58134 8.04957 4.13583 7.81989 4.714 7.81989C5.29217 7.81989 5.84666 8.04957 6.25549 8.4584C6.66432 8.86723 6.894 9.42172 6.894 9.99989C6.894 10.5781 6.66432 11.1326 6.25549 11.5414C5.84666 11.9502 5.29217 12.1799 4.714 12.1799C4.13583 12.1799 3.58134 11.9502 3.17251 11.5414C2.76368 11.1326 2.534 10.5781 2.534 9.99989ZM19.25 16.6069H13.502M13.502 16.6069C13.502 17.1852 13.2718 17.7403 12.8628 18.1492C12.4539 18.5582 11.8993 18.7879 11.321 18.7879C10.7428 18.7879 10.1883 18.5572 9.77951 18.1484C9.37068 17.7396 9.141 17.1851 9.141 16.6069M13.502 16.6069C13.502 16.0286 13.2718 15.4745 12.8628 15.0655C12.4539 14.6566 11.8993 14.4269 11.321 14.4269C10.7428 14.4269 10.1883 14.6566 9.77951 15.0654C9.37068 15.4742 9.141 16.0287 9.141 16.6069M9.141 16.6069H0.75M19.25 3.39289H16.145M11.784 3.39289H0.75M11.784 3.39289C11.784 2.81472 12.0137 2.26023 12.4225 1.8514C12.8313 1.44257 13.3858 1.21289 13.964 1.21289C14.2503 1.21289 14.5338 1.26928 14.7983 1.37883C15.0627 1.48839 15.3031 1.64897 15.5055 1.8514C15.7079 2.05383 15.8685 2.29415 15.9781 2.55864C16.0876 2.82313 16.144 3.10661 16.144 3.39289C16.144 3.67917 16.0876 3.96265 15.9781 4.22714C15.8685 4.49163 15.7079 4.73195 15.5055 4.93438C15.3031 5.13681 15.0627 5.29739 14.7983 5.40695C14.5338 5.5165 14.2503 5.57289 13.964 5.57289C13.3858 5.57289 12.8313 5.34321 12.4225 4.93438C12.0137 4.52555 11.784 3.97106 11.784 3.39289Z" stroke="#434141" stroke-width="1.5" stroke-miterlimit="10" stroke-linecap="round"/>
 </symbol>

</svg>
